<?xml version="1.0" encoding="utf-8"?>
<!-- Generator: Adobe Illustrator 15.1.0, SVG Export Plug-In  -->
<!DOCTYPE svg PUBLIC "-//W3C//DTD SVG 1.1//EN" "http://www.w3.org/Graphics/SVG/1.1/DTD/svg11.dtd" [
	<!ENTITY ns_flows "http://ns.adobe.com/Flows/1.0/">
]>
<svg version="1.1"
	 xmlns="http://www.w3.org/2000/svg" xmlns:xlink="http://www.w3.org/1999/xlink" xmlns:a="http://ns.adobe.com/AdobeSVGViewerExtensions/3.0/"
	 x="0px" y="0px" width="116px" height="79px" viewBox="0 0 116 79" overflow="visible" enable-background="new 0 0 116 79"
	 xml:space="preserve">
<defs>
</defs>
<path fill="#71BF44" d="M57.323,69.281c0.604,2.005,2.466,3.466,4.669,3.466h51.891c1.01,0,1.827,0.818,1.827,1.827
	c0,1.01-0.817,1.828-1.827,1.828l-58.249-0.014c-3.374,0-6.214-2.286-7.056-5.396l-16.014-49.42c-0.25-0.71-0.928-1.22-1.725-1.22
	c-0.84,0-1.549,0.568-1.762,1.34L13.929,75.559c-0.575,2.05-2.458,3.553-4.691,3.553l-5.583-0.006C1.637,79.105,0,77.47,0,75.451
	c-0.002-0.379,0.057-0.743,0.164-1.087l18.686-65.1c0.672-1.885,2.473-3.236,4.591-3.236l9.937,0.032
	c2.144,0,3.966,1.386,4.617,3.311L57.323,69.281z"/>
<path fill="#777373" d="M20.393,65.714c-0.09,0.316-0.137,0.651-0.137,0.997c0,2.019,1.637,3.654,3.654,3.654h15.598
	c2.018,0,3.655-1.636,3.655-3.654c0-0.347-0.048-0.684-0.14-1.002l-3.139-9.7c-0.656-1.917-2.473-3.295-4.612-3.295h-7.533
	c-2.187,0-4.037,1.441-4.654,3.426L20.393,65.714z"/>
<path fill="#777373" d="M113.134,67.928c0.062,0.185,0.096,0.382,0.096,0.587c0,1.009-0.818,1.827-1.827,1.827h-5.335
	c-0.836,0-1.54-0.562-1.759-1.328L86.627,15.499c-0.229-0.749-0.926-1.295-1.748-1.295c-0.791,0-1.466,0.501-1.72,1.204
	L65.92,68.608c-0.327,1.03-1.293,1.776-2.433,1.776c-1.151,0-2.127-0.76-2.445-1.808l-4.494-13.714
	c-0.214-0.686-0.328-1.416-0.328-2.172c0-0.799,0.127-1.567,0.363-2.287L71.837,3.271C72.501,1.367,74.31,0,76.44,0l9.889,0.007
	c2.171,0,4.011,1.421,4.64,3.382L113.134,67.928z"/>
</svg>
